{"title":"Across the universe.2007.SWESUB.DVDRip.XviD.AC3.(5.1).-Zen_Bud","uid":5557674,"size":1473737630,"categoryP":"video","categoryS":"movies","magnet":"?xt=urn:btih:118f231b62778c603e3003c51f9e41b6b390b4e6&amp;dn=Across+the+universe.2007.SWESUB.DVDRip.XviD.AC3.%285.1%29.-Zen_Bud&amp;tr=udp%3A%2F%2Ftracker.openbittorrent.com%3A80&amp;tr=udp%3A%2F%2Fopen.demonii.com%3A1337&amp;tr=udp%3A%2F%2Ftracker.coppersurfer.tk%3A6969&amp;tr=udp%3A%2F%2Fexodus.desync.com%3A6969","seeders":1,"leechers":0,"uploader":"Zen_Bud","files":-1,"time":1273739667,"description":"General\nComplete name                    : Across the universe.avi\nFormat                           : AVI\nFile size                        : 1.37 GiB\nDuration                         : 2h 13mn\nOverall bit rate                 : 1 474 Kbps\n\nVideo\nID                               : 0\nFormat                           : MPEG-4 Visual\nCodec ID/Hint                    : XviD\nDuration                         : 2h 13mn\nBit rate                         : 1 015 Kbps\nWidth                            : 720 pixels\nHeight                           : 428 pixels\nDisplay aspect ratio             : 2.35:1\nResolution                       : 8 bits\nColorimetry                      : 4:2:0\nScan type                        : Progressive\nBits/(Pixel*Frame)               : 0.132\nStream size                      : 968 MiB (69%)\nWriting library                  : XviD 1.1.2 (UTC 2006-11-01)\n\nAudio\nID                               : 1\nFormat                           : AC-3\nDuration                         : 2h 13mn\nBit rate                         : 448 Kbps\nChannel(s)                       : 6 channels\nChannel positions                : Front: L C R, Side: L R, LFE\nSampling rate                    : 48.0 KHz\nStream size                      : 427 MiB (30%)\n\n\n","torrent":{"xt":"urn:btih:118f231b62778c603e3003c51f9e41b6b390b4e6","amp;dn":"Across+the+universe.2007.SWESUB.DVDRip.XviD.AC3.%285.1%29.-Zen_Bud","amp;tr":["udp%3A%2F%2Ftracker.openbittorrent.com%3A80","udp%3A%2F%2Fopen.demonii.com%3A1337","udp%3A%2F%2Ftracker.coppersurfer.tk%3A6969","udp%3A%2F%2Fexodus.desync.com%3A6969"],"infoHash":"118f231b62778c603e3003c51f9e41b6b390b4e6","infoHashBuffer":{"type":"Buffer","data":[17,143,35,27,98,119,140,96,62,48,3,197,31,158,65,182,179,144,180,230]},"announce":[],"urlList":[]}}